<mxfile host="app.diagrams.net" modified="2023-08-18T09:47:55.834Z" agent="Mozilla/5.0 (Windows NT 10.0; Win64; x64) AppleWebKit/537.36 (KHTML, like Gecko) Chrome/115.0.0.0 Safari/537.36" version="21.6.6" etag="q2HFLSawdUAnuEOGUC60" type="github">
  <diagram name="第 1 页" id="pIt1_z6id06JVBs3wRUh">
    <mxGraphModel>
      <root>
        <mxCell id="0" />
        <mxCell id="1" parent="0" />
      </root>
    </mxGraphModel>
  </diagram>
</mxfile>
